<svg width="49" height="49" viewBox="0 0 49 49" fill="none" xmlns="http://www.w3.org/2000/svg">
<rect x="0.666992" y="1" width="47" height="47" rx="11.5" stroke="white"/>
<path d="M29.617 35.25C28.487 35.25 27.297 34.98 26.067 34.46C24.867 33.95 23.657 33.25 22.477 32.4C21.307 31.54 20.177 30.58 19.107 29.53C18.047 28.46 17.087 27.33 16.237 26.17C15.377 24.97 14.687 23.77 14.197 22.61C13.677 21.37 13.417 20.17 13.417 19.04C13.417 18.26 13.557 17.52 13.827 16.83C14.107 16.12 14.557 15.46 15.167 14.89C15.937 14.13 16.817 13.75 17.757 13.75C18.147 13.75 18.547 13.84 18.887 14C19.277 14.18 19.607 14.45 19.847 14.81L22.167 18.08C22.377 18.37 22.537 18.65 22.647 18.93C22.777 19.23 22.847 19.53 22.847 19.82C22.847 20.2 22.737 20.57 22.527 20.92C22.377 21.19 22.147 21.48 21.857 21.77L21.177 22.48C21.187 22.51 21.197 22.53 21.207 22.55C21.327 22.76 21.567 23.12 22.027 23.66C22.517 24.22 22.977 24.73 23.437 25.2C24.027 25.78 24.517 26.24 24.977 26.62C25.547 27.1 25.917 27.34 26.137 27.45L26.117 27.5L26.847 26.78C27.157 26.47 27.457 26.24 27.747 26.09C28.297 25.75 28.997 25.69 29.697 25.98C29.957 26.09 30.237 26.24 30.537 26.45L33.857 28.81C34.227 29.06 34.497 29.38 34.657 29.76C34.807 30.14 34.877 30.49 34.877 30.84C34.877 31.32 34.767 31.8 34.557 32.25C34.347 32.7 34.087 33.09 33.757 33.45C33.187 34.08 32.567 34.53 31.847 34.82C31.157 35.1 30.407 35.25 29.617 35.25ZM17.757 15.25C17.207 15.25 16.697 15.49 16.207 15.97C15.747 16.4 15.427 16.87 15.227 17.38C15.017 17.9 14.917 18.45 14.917 19.04C14.917 19.97 15.137 20.98 15.577 22.02C16.027 23.08 16.657 24.18 17.457 25.28C18.257 26.38 19.167 27.45 20.167 28.46C21.167 29.45 22.247 30.37 23.357 31.18C24.437 31.97 25.547 32.61 26.647 33.07C28.357 33.8 29.957 33.97 31.277 33.42C31.787 33.21 32.237 32.89 32.647 32.43C32.877 32.18 33.057 31.91 33.207 31.59C33.327 31.34 33.387 31.08 33.387 30.82C33.387 30.66 33.357 30.5 33.277 30.32C33.247 30.26 33.187 30.15 32.997 30.02L29.677 27.66C29.477 27.52 29.297 27.42 29.127 27.35C28.907 27.26 28.817 27.17 28.477 27.38C28.277 27.48 28.097 27.63 27.897 27.83L27.137 28.58C26.747 28.96 26.147 29.05 25.687 28.88L25.417 28.76C25.007 28.54 24.527 28.2 23.997 27.75C23.517 27.34 22.997 26.86 22.367 26.24C21.877 25.74 21.387 25.21 20.877 24.62C20.407 24.07 20.067 23.6 19.857 23.21L19.737 22.91C19.677 22.68 19.657 22.55 19.657 22.41C19.657 22.05 19.787 21.73 20.037 21.48L20.787 20.7C20.987 20.5 21.137 20.31 21.237 20.14C21.317 20.01 21.347 19.9 21.347 19.8C21.347 19.72 21.317 19.6 21.267 19.48C21.197 19.32 21.087 19.14 20.947 18.95L18.627 15.67C18.527 15.53 18.407 15.43 18.257 15.36C18.097 15.29 17.927 15.25 17.757 15.25ZM26.117 27.51L25.957 28.19L26.227 27.49C26.177 27.48 26.137 27.49 26.117 27.51Z" fill="white"/>
<path d="M30.667 22.25C30.257 22.25 29.917 21.91 29.917 21.5C29.917 21.14 29.557 20.39 28.957 19.75C28.367 19.12 27.717 18.75 27.167 18.75C26.757 18.75 26.417 18.41 26.417 18C26.417 17.59 26.757 17.25 27.167 17.25C28.137 17.25 29.157 17.77 30.047 18.72C30.877 19.61 31.417 20.7 31.417 21.5C31.417 21.91 31.077 22.25 30.667 22.25Z" fill="white"/>
<path d="M34.167 22.25C33.757 22.25 33.417 21.91 33.417 21.5C33.417 18.05 30.617 15.25 27.167 15.25C26.757 15.25 26.417 14.91 26.417 14.5C26.417 14.09 26.757 13.75 27.167 13.75C31.437 13.75 34.917 17.23 34.917 21.5C34.917 21.91 34.577 22.25 34.167 22.25Z" fill="white"/>
</svg>
