<svg width="49" height="49" viewBox="0 0 49 49" fill="none" xmlns="http://www.w3.org/2000/svg">
<rect x="1.3335" y="1" width="47" height="47" rx="11.5" stroke="white"/>
<path d="M28.4835 33.9102C28.0535 33.9102 27.6235 33.8202 27.2735 33.6502L22.0235 31.0202C21.7235 30.8702 21.1335 30.8802 20.8435 31.0502L18.4835 32.4002C17.4635 32.9802 16.4135 33.0602 15.6235 32.5902C14.8235 32.1302 14.3735 31.1902 14.3735 30.0102V20.2902C14.3735 19.3802 14.9735 18.3502 15.7635 17.9002L20.0935 15.4202C20.8235 15.0002 21.9335 14.9702 22.6835 15.3502L27.9335 17.9802C28.2335 18.1302 28.8135 18.1102 29.1135 17.9502L31.4635 16.6102C32.4835 16.0302 33.5335 15.9502 34.3235 16.4202C35.1235 16.8802 35.5735 17.8202 35.5735 19.0002V28.7302C35.5735 29.6402 34.9735 30.6702 34.1835 31.1202L29.8535 33.6002C29.4735 33.8002 28.9735 33.9102 28.4835 33.9102ZM21.4735 29.4202C21.9035 29.4202 22.3335 29.5102 22.6835 29.6802L27.9335 32.3102C28.2335 32.4602 28.8135 32.4402 29.1135 32.2802L33.4435 29.8002C33.7635 29.6202 34.0735 29.0802 34.0735 28.7202V18.9902C34.0735 18.3602 33.8935 17.8902 33.5635 17.7102C33.2435 17.5302 32.7435 17.6002 32.2035 17.9102L29.8535 19.2502C29.1235 19.6702 28.0135 19.7002 27.2635 19.3202L22.0135 16.6902C21.7135 16.5402 21.1335 16.5602 20.8335 16.7202L16.5035 19.2002C16.1835 19.3802 15.8735 19.9202 15.8735 20.2902V30.0202C15.8735 30.6502 16.0535 31.1202 16.3735 31.3002C16.6935 31.4902 17.1935 31.4102 17.7435 31.1002L20.0935 29.7602C20.4835 29.5302 20.9835 29.4202 21.4735 29.4202Z" fill="white"/>
<path d="M21.3936 30.25C20.9836 30.25 20.6436 29.91 20.6436 29.5V16.5C20.6436 16.09 20.9836 15.75 21.3936 15.75C21.8036 15.75 22.1436 16.09 22.1436 16.5V29.5C22.1436 29.91 21.8036 30.25 21.3936 30.25Z" fill="white"/>
<path d="M28.5635 33.2491C28.1535 33.2491 27.8135 32.9091 27.8135 32.4991V19.1191C27.8135 18.7091 28.1535 18.3691 28.5635 18.3691C28.9735 18.3691 29.3135 18.7091 29.3135 19.1191V32.4991C29.3135 32.9091 28.9735 33.2491 28.5635 33.2491Z" fill="white"/>
</svg>
